<?xml version="1.0" encoding="UTF-8"?>
<svg id="Capa_2" data-name="Capa 2" xmlns="http://www.w3.org/2000/svg" xmlns:xlink="http://www.w3.org/1999/xlink" viewBox="0 0 1298.63 1298.63">
  <defs>
    <style>
      .cls-1 {
        fill: url(#Degradado_sin_nombre_56);
      }
    </style>
    <linearGradient id="Degradado_sin_nombre_56" data-name="Degradado sin nombre 56" x1="438.93" y1="283.58" x2="820.48" y2="1112.73" gradientUnits="userSpaceOnUse">
      <stop offset=".12" stop-color="#b796e5"/>
      <stop offset=".72" stop-color="#547dcd"/>
      <stop offset=".97" stop-color="#ead681"/>
    </linearGradient>
  </defs>
  <g id="Capa_1-2" data-name="Capa 1">
    <circle cx="649.32" cy="649.32" r="649.32"/>
    <path class="cls-1" d="M658.82,286.82c30.33,0,58.66,4.52,85,13.52,26.33,9,49.08,22.09,68.25,39.27,19.16,17.19,34.25,38.11,45.25,62.8s16.5,52.72,16.5,84.06c0,26.69-4,51.36-12,74.05s-18.84,44.45-32.5,65.3c-13.67,20.84-29.42,41.03-47.25,60.53-17.84,19.52-36.75,39.45-56.75,59.8l-188.5,193.12c13.33-3.8,26.83-6.81,40.5-9.06,13.66-2.25,26.83-3.38,39.5-3.38h240c9.66,0,17.33,2.86,23,8.55,5.66,5.7,8.5,13.08,8.5,22.14v54.31h-478v-30.5c0-6.33,1.25-12.83,3.75-19.5,2.5-6.66,6.58-12.83,12.25-18.5l229.5-230.5c19-19.33,36.33-37.91,52-55.75,15.66-17.83,29.08-35.75,40.25-53.75,11.16-18,19.75-36.25,25.75-54.75s9-38.25,9-59.25-3.34-39.41-10-55.25c-6.67-15.83-15.84-28.91-27.5-39.25-11.67-10.33-25.34-18.08-41-23.25-15.67-5.16-32.5-7.75-50.5-7.75s-34.67,2.67-50,8c-15.34,5.33-28.92,12.73-40.75,22.22-11.84,9.5-21.84,20.73-30,33.72-8.17,12.98-13.92,27.3-17.25,42.95-2.67,9.66-6.67,16.66-12,20.98-5.34,4.33-12.34,6.48-21,6.48-1.67,0-3.42-.08-5.25-.25-1.84-.16-3.92-.41-6.25-.73l-46.5-7.89c4.66-32.75,13.66-61.73,27-86.95,13.33-25.22,30.25-46.36,50.75-63.41,20.5-17.03,44-29.98,70.5-38.84,26.5-8.84,55.08-13.28,85.75-13.28Z"/>
  </g>
</svg>