<?xml version="1.0" encoding="UTF-8"?>
<svg id="Capa_2" data-name="Capa 2" xmlns="http://www.w3.org/2000/svg" xmlns:xlink="http://www.w3.org/1999/xlink" viewBox="0 0 1298.63 1298.63">
  <defs>
    <style>
      .cls-1 {
        fill: url(#Degradado_sin_nombre_59);
      }
    </style>
    <linearGradient id="Degradado_sin_nombre_59" data-name="Degradado sin nombre 59" x1="515.25" y1="319.99" x2="779.4" y2="973.03" gradientUnits="userSpaceOnUse">
      <stop offset=".21" stop-color="#b796e5"/>
      <stop offset=".72" stop-color="#547dcd"/>
      <stop offset=".97" stop-color="#ead681"/>
    </linearGradient>
  </defs>
  <g id="Capa_1-2" data-name="Capa 1">
    <circle cx="649.32" cy="649.32" r="649.32"/>
    <path class="cls-1" d="M664.82,282.82c30.33,0,58.33,4.34,84,13.02,25.66,8.69,47.75,21.03,66.25,37.05,18.5,16.03,32.91,35.39,43.25,58.08,10.33,22.7,15.5,47.91,15.5,75.59,0,22.7-2.92,42.98-8.75,60.84-5.84,17.86-14.17,33.55-25,47.06-10.84,13.52-23.92,24.94-39.25,34.28-15.34,9.34-32.5,16.86-51.5,22.53,46.66,12.34,81.75,33.02,105.25,62.02s35.25,65.34,35.25,109c0,33.02-6.25,62.69-18.75,89.02-12.5,26.34-29.59,48.77-51.25,67.27-21.67,18.5-46.92,32.67-75.75,42.5-28.84,9.83-59.75,14.75-92.75,14.75-38,0-70.5-4.72-97.5-14.12s-49.84-22.38-68.5-38.91c-18.67-16.52-34-36.09-46-58.73-12-22.62-22.17-47.17-30.5-73.61l38-17.28c7-3.23,14-4.86,21-4.86s12.58,1.42,17.75,4.25c5.16,2.84,9.08,7.25,11.75,13.25.66,1.34,1.33,2.75,2,4.25.66,1.5,1.33,3.09,2,4.75,4.66,9.67,10.33,20.59,17,32.77,6.66,12.17,15.66,23.59,27,34.25,11.33,10.67,25.41,19.67,42.25,27,16.83,7.34,37.75,11,62.75,11s46.91-4.08,65.75-12.25c18.83-8.16,34.5-18.75,47-31.75s21.91-27.5,28.25-43.5c6.33-16,9.5-31.83,9.5-47.5,0-19.33-2.59-37-7.75-53-5.17-16-14.5-29.83-28-41.5-13.5-11.66-32.17-20.83-56-27.5-23.84-6.66-54.42-10-91.75-10v-65c30.33,0,56.25-3.16,77.75-9.5,21.5-6.33,39.08-15,52.75-26,13.66-11,23.58-24.16,29.75-39.5,6.16-15.33,9.25-32.33,9.25-51,0-20.66-3.25-38.66-9.75-54-6.5-15.33-15.42-28-26.75-38-11.34-10-24.75-17.5-40.25-22.5s-32.25-7.5-50.25-7.5-34.67,2.67-50,8c-15.34,5.33-28.92,12.73-40.75,22.22-11.84,9.5-21.75,20.81-29.75,33.97s-14,27.39-18,42.7c-2.67,9.66-6.67,16.66-12,20.98-5.34,4.33-12.17,6.48-20.5,6.48-1.67,0-3.42-.08-5.25-.25-1.84-.16-3.92-.41-6.25-.73l-46.5-7.89c4.66-32.75,13.66-61.73,27-86.95,13.33-25.22,30.25-46.36,50.75-63.41,20.5-17.03,44-29.98,70.5-38.84,26.5-8.84,55.08-13.28,85.75-13.28Z"/>
  </g>
</svg>