<?xml version="1.0" encoding="UTF-8"?>
<svg id="Capa_2" data-name="Capa 2" xmlns="http://www.w3.org/2000/svg" xmlns:xlink="http://www.w3.org/1999/xlink" viewBox="0 0 1298.63 1298.63">
  <defs>
    <style>
      .cls-1 {
        fill: url(#Degradado_sin_nombre_51);
      }
    </style>
    <linearGradient id="Degradado_sin_nombre_51" data-name="Degradado sin nombre 51" x1="462.99" y1="334.85" x2="851.88" y2="936.54" gradientUnits="userSpaceOnUse">
      <stop offset=".24" stop-color="#b796e5"/>
      <stop offset=".72" stop-color="#547dcd"/>
      <stop offset=".97" stop-color="#ead681"/>
    </linearGradient>
  </defs>
  <g id="Capa_1-2" data-name="Capa 1">
    <circle cx="649.32" cy="649.32" r="649.32"/>
    <path class="cls-1" d="M810.82,749.25h108.5v50.69c0,5.3-1.59,9.77-4.75,13.41-3.17,3.66-8.09,5.47-14.75,5.47h-89v189h-78.5v-189h-317.5c-6.67,0-12.42-1.91-17.25-5.75-4.84-3.83-7.92-8.58-9.25-14.25l-9-45.5,348.5-462.5h83v458.44ZM732.32,458.1c0-8.53.25-17.73.75-27.59.5-9.84,1.58-20.03,3.25-30.55l-260.5,349.3h256.5v-291.16Z"/>
  </g>
</svg>